<svg width="25" height="25" viewBox="0 0 25 25" fill="none" xmlns="http://www.w3.org/2000/svg">
<path d="M20.4602 8.31994L12.7602 12.7799C12.4502 12.9599 12.0602 12.9599 11.7402 12.7799L4.04021 8.31994C3.49021 7.99994 3.35021 7.24994 3.77021 6.77994C4.06021 6.44994 4.39021 6.17994 4.74021 5.98994L10.1602 2.98994C11.3202 2.33994 13.2002 2.33994 14.3602 2.98994L19.7802 5.98994C20.1302 6.17994 20.4602 6.45994 20.7502 6.77994C21.1502 7.24994 21.0102 7.99994 20.4602 8.31994Z" fill="#0A2833"/>
<path d="M11.6805 14.6399V21.4599C11.6805 22.2199 10.9105 22.7199 10.2305 22.3899C8.17047 21.3799 4.70047 19.4899 4.70047 19.4899C3.48047 18.7999 2.48047 17.0599 2.48047 15.6299V10.4699C2.48047 9.67988 3.31047 9.17988 3.99047 9.56988L11.1805 13.7399C11.4805 13.9299 11.6805 14.2699 11.6805 14.6399Z" fill="#0A2833"/>
<path d="M12.8203 14.6399V21.4599C12.8203 22.2199 13.5903 22.7199 14.2703 22.3899C16.3303 21.3799 19.8003 19.4899 19.8003 19.4899C21.0203 18.7999 22.0203 17.0599 22.0203 15.6299V10.4699C22.0203 9.67988 21.1903 9.17988 20.5103 9.56988L13.3203 13.7399C13.0203 13.9299 12.8203 14.2699 12.8203 14.6399Z" fill="#0A2833"/>
</svg>
