<svg width="25" height="25" viewBox="0 0 25 25" fill="none" xmlns="http://www.w3.org/2000/svg">
<path d="M16.5 23C17.4665 23 18.25 22.2165 18.25 21.25C18.25 20.2835 17.4665 19.5 16.5 19.5C15.5335 19.5 14.75 20.2835 14.75 21.25C14.75 22.2165 15.5335 23 16.5 23Z" fill="#0A2833"/>
<path d="M8.5 23C9.4665 23 10.25 22.2165 10.25 21.25C10.25 20.2835 9.4665 19.5 8.5 19.5C7.5335 19.5 6.75 20.2835 6.75 21.25C6.75 22.2165 7.5335 23 8.5 23Z" fill="#0A2833"/>
<path d="M5.09 4.44L4.89 6.89C4.85 7.36 5.22 7.75 5.69 7.75H21C21.42 7.75 21.77 7.43 21.8 7.01C21.93 5.24 20.58 3.8 18.81 3.8H6.52C6.42 3.36 6.22 2.94 5.91 2.59C5.41 2.06 4.71 1.75 3.99 1.75H2.25C1.84 1.75 1.5 2.09 1.5 2.5C1.5 2.91 1.84 3.25 2.25 3.25H3.99C4.3 3.25 4.59 3.38 4.8 3.6C5.01 3.83 5.11 4.13 5.09 4.44Z" fill="#0A2833"/>
<path d="M20.76 9.25H5.42001C5.00001 9.25 4.66001 9.57 4.62001 9.98L4.26001 14.33C4.12001 16.04 5.46001 17.5 7.17001 17.5H18.29C19.79 17.5 21.11 16.27 21.22 14.77L21.55 10.1C21.59 9.64 21.23 9.25 20.76 9.25Z" fill="#0A2833"/>
</svg>
