<svg width="25" height="25" viewBox="0 0 25 25" fill="none" xmlns="http://www.w3.org/2000/svg">
<path d="M2.25 2.5H3.99001C5.07001 2.5 5.92 3.43 5.83 4.5L5 14.46C4.86 16.09 6.14999 17.49 7.78999 17.49H18.44C19.88 17.49 21.14 16.31 21.25 14.88L21.79 7.38C21.91 5.72 20.65 4.37 18.98 4.37H6.07001" stroke="#64748B" stroke-width="1.5" stroke-miterlimit="10" stroke-linecap="round" stroke-linejoin="round"/>
<path d="M16.5 22.5C17.1904 22.5 17.75 21.9404 17.75 21.25C17.75 20.5596 17.1904 20 16.5 20C15.8096 20 15.25 20.5596 15.25 21.25C15.25 21.9404 15.8096 22.5 16.5 22.5Z" stroke="#64748B" stroke-width="1.5" stroke-miterlimit="10" stroke-linecap="round" stroke-linejoin="round"/>
<path d="M8.5 22.5C9.19036 22.5 9.75 21.9404 9.75 21.25C9.75 20.5596 9.19036 20 8.5 20C7.80964 20 7.25 20.5596 7.25 21.25C7.25 21.9404 7.80964 22.5 8.5 22.5Z" stroke="#64748B" stroke-width="1.5" stroke-miterlimit="10" stroke-linecap="round" stroke-linejoin="round"/>
<path d="M9.25 8.5H21.25" stroke="#64748B" stroke-width="1.5" stroke-miterlimit="10" stroke-linecap="round" stroke-linejoin="round"/>
</svg>
