<svg width="25" height="25" viewBox="0 0 25 25" fill="none" xmlns="http://www.w3.org/2000/svg">
<path d="M9.90722 21.2714V18.2047C9.9072 17.4246 10.5431 16.7908 11.331 16.7856H14.2171C15.0087 16.7856 15.6505 17.4209 15.6505 18.2047V18.2047V21.2809C15.6503 21.9432 16.1843 22.4845 16.853 22.5H18.7771C20.6951 22.5 22.25 20.9607 22.25 19.0618V19.0618V10.3378C22.2398 9.59083 21.8855 8.88935 21.288 8.43303L14.7077 3.1853C13.5549 2.27157 11.9162 2.27157 10.7634 3.1853L4.21203 8.44256C3.61226 8.89702 3.25739 9.59967 3.25 10.3474V19.0618C3.25 20.9607 4.80488 22.5 6.72291 22.5H8.64696C9.33235 22.5 9.88797 21.9499 9.88797 21.2714V21.2714" stroke="#64748B" stroke-width="1.5" stroke-linecap="round" stroke-linejoin="round"/>
</svg>
