<svg width="25" height="25" viewBox="0 0 25 25" fill="none" xmlns="http://www.w3.org/2000/svg">
<path d="M9.88478 21.2733V18.2156C9.88478 17.4351 10.5222 16.8023 11.3084 16.8023H14.1826C14.5602 16.8023 14.9223 16.9512 15.1893 17.2163C15.4563 17.4813 15.6063 17.8408 15.6063 18.2156V21.2733C15.6039 21.5978 15.7321 21.9099 15.9624 22.1402C16.1927 22.3705 16.5061 22.5 16.8329 22.5H18.7938C19.7096 22.5023 20.5888 22.1428 21.2372 21.5008C21.8856 20.8588 22.25 19.987 22.25 19.0778V10.3669C22.25 9.63246 21.9221 8.93584 21.3546 8.46467L14.684 3.17587C13.5237 2.24856 11.8611 2.2785 10.7354 3.24698L4.21701 8.46467C3.62274 8.92195 3.26755 9.62064 3.25 10.3669V19.0689C3.25 20.9639 4.79738 22.5 6.70617 22.5H8.62229C9.30123 22.5 9.853 21.9562 9.85792 21.2822L9.88478 21.2733Z" fill="#0A2833"/>
</svg>
