<svg width="20" height="20" viewBox="0 0 20 20" fill="none" xmlns="http://www.w3.org/2000/svg">
<path fill-rule="evenodd" clip-rule="evenodd" d="M3.53247 8.65956C3.54448 5.12574 6.41894 2.27075 9.95276 2.28275C13.4866 2.29476 16.3416 5.16922 16.3296 8.70304V8.77551C16.2861 11.0726 15.0035 13.1958 13.431 14.8552C12.5317 15.7891 11.5275 16.6158 10.4383 17.319C10.147 17.5709 9.71502 17.5709 9.42377 17.319C7.80003 16.2621 6.37492 14.9277 5.21363 13.377C4.1786 12.0246 3.59094 10.3833 3.53247 8.6813L3.53247 8.65956Z" stroke="#6B6B6B" stroke-width="1.5" stroke-linecap="round" stroke-linejoin="round"/>
<path fill-rule="evenodd" clip-rule="evenodd" d="M9.9311 10.8334C11.0637 10.8334 11.9818 9.91524 11.9818 8.78266C11.9818 7.65007 11.0637 6.73193 9.9311 6.73193C8.79851 6.73193 7.88037 7.65007 7.88037 8.78266C7.88037 9.91524 8.79851 10.8334 9.9311 10.8334Z" stroke="#6B6B6B" stroke-width="1.5" stroke-linecap="round" stroke-linejoin="round"/>
</svg>
