<svg width="25" height="25" viewBox="0 0 25 25" fill="none" xmlns="http://www.w3.org/2000/svg">
<path d="M20.0899 14.99L19.0899 13.33C18.8799 12.96 18.6899 12.26 18.6899 11.85V9.32C18.6899 6.97 17.3099 4.94 15.3199 3.99C14.7999 3.07 13.8399 2.5 12.7399 2.5C11.6499 2.5 10.6699 3.09 10.1499 4.02C8.19994 4.99 6.84994 7 6.84994 9.32V11.85C6.84994 12.26 6.65994 12.96 6.44994 13.32L5.43994 14.99C5.03994 15.66 4.94994 16.4 5.19994 17.08C5.43994 17.75 6.00994 18.27 6.74994 18.52C8.68994 19.18 10.7299 19.5 12.7699 19.5C14.8099 19.5 16.8499 19.18 18.7899 18.53C19.4899 18.3 20.0299 17.77 20.2899 17.08C20.5499 16.39 20.4799 15.63 20.0899 14.99Z" fill="#0A2833"/>
<path d="M15.5799 20.51C15.1599 21.67 14.0499 22.5 12.7499 22.5C11.9599 22.5 11.1799 22.18 10.6299 21.61C10.3099 21.31 10.0699 20.91 9.92993 20.5C10.0599 20.52 10.1899 20.53 10.3299 20.55C10.5599 20.58 10.7999 20.61 11.0399 20.63C11.6099 20.68 12.1899 20.71 12.7699 20.71C13.3399 20.71 13.9099 20.68 14.4699 20.63C14.6799 20.61 14.8899 20.6 15.0899 20.57C15.2499 20.55 15.4099 20.53 15.5799 20.51Z" fill="#0A2833"/>
</svg>
