<svg width="25" height="25" viewBox="0 0 25 25" fill="none" xmlns="http://www.w3.org/2000/svg">
<path d="M12.771 3.41113C9.46097 3.41113 6.77097 6.10113 6.77097 9.41113V12.3011C6.77097 12.9111 6.51097 13.8411 6.20097 14.3611L5.05097 16.2711C4.34097 17.4511 4.83097 18.7611 6.13097 19.2011C10.441 20.6411 15.091 20.6411 19.401 19.2011C20.611 18.8011 21.141 17.3711 20.481 16.2711L19.331 14.3611C19.031 13.8411 18.771 12.9111 18.771 12.3011V9.41113C18.771 6.11113 16.071 3.41113 12.771 3.41113Z" stroke="#64748B" stroke-width="1.5" stroke-miterlimit="10" stroke-linecap="round"/>
<path d="M14.6219 3.70043C14.3119 3.61043 13.9919 3.54043 13.6619 3.50043C12.7019 3.38043 11.7819 3.45043 10.9219 3.70043C11.2119 2.96043 11.9319 2.44043 12.7719 2.44043C13.6119 2.44043 14.3319 2.96043 14.6219 3.70043Z" stroke="#64748B" stroke-width="1.5" stroke-miterlimit="10" stroke-linecap="round" stroke-linejoin="round"/>
<path d="M15.7687 19.5596C15.7687 21.2096 14.4187 22.5596 12.7687 22.5596C11.9487 22.5596 11.1887 22.2196 10.6487 21.6796C10.1087 21.1396 9.76874 20.3796 9.76874 19.5596" stroke="#64748B" stroke-width="1.5" stroke-miterlimit="10"/>
</svg>
