<svg width="25" height="24" viewBox="0 0 25 24" fill="none" xmlns="http://www.w3.org/2000/svg">
<path d="M13.5 15.9198H14.15C14.8 15.9198 15.34 15.3398 15.34 14.6398C15.34 13.7698 15.03 13.5998 14.52 13.4198L13.51 13.0698V15.9198H13.5Z" fill="#0A2833"/>
<path d="M12.7201 1.89992C7.20007 1.91992 2.73007 6.40992 2.75007 11.9299C2.77007 17.4499 7.26007 21.9199 12.7801 21.8999C18.3001 21.8799 22.7701 17.3899 22.7501 11.8699C22.7301 6.34992 18.2401 1.88992 12.7201 1.89992ZM15.0101 11.9999C15.7901 12.2699 16.8401 12.8499 16.8401 14.6399C16.8401 16.1799 15.6301 17.4199 14.1501 17.4199H13.5001V17.9999C13.5001 18.4099 13.1601 18.7499 12.7501 18.7499C12.3401 18.7499 12.0001 18.4099 12.0001 17.9999V17.4199H11.6401C10.0001 17.4199 8.67007 16.0399 8.67007 14.3399C8.67007 13.9299 9.01007 13.5899 9.42007 13.5899C9.83007 13.5899 10.1701 13.9299 10.1701 14.3399C10.1701 15.2099 10.8301 15.9199 11.6401 15.9199H12.0001V12.5399L10.4901 11.9999C9.71007 11.7299 8.66007 11.1499 8.66007 9.35992C8.66007 7.81992 9.87007 6.57992 11.3501 6.57992H12.0001V5.99992C12.0001 5.58992 12.3401 5.24992 12.7501 5.24992C13.1601 5.24992 13.5001 5.58992 13.5001 5.99992V6.57992H13.8601C15.5001 6.57992 16.8301 7.95992 16.8301 9.65992C16.8301 10.0699 16.4901 10.4099 16.0801 10.4099C15.6701 10.4099 15.3301 10.0699 15.3301 9.65992C15.3301 8.78992 14.6701 8.07992 13.8601 8.07992H13.5001V11.4599L15.0101 11.9999Z" fill="#0A2833"/>
<path d="M10.1699 9.37008C10.1699 10.2401 10.4799 10.4101 10.9899 10.5901L11.9999 10.9401V8.08008H11.3499C10.6999 8.08008 10.1699 8.66008 10.1699 9.37008Z" fill="#0A2833"/>
</svg>
