<svg width="25" height="25" viewBox="0 0 25 25" fill="none" xmlns="http://www.w3.org/2000/svg">
<path d="M9.42188 14.8298C9.42188 16.1198 10.4119 17.1598 11.6419 17.1598H14.1519C15.2219 17.1598 16.0919 16.2498 16.0919 15.1298C16.0919 13.9098 15.5619 13.4798 14.7719 13.1998L10.7419 11.7998C9.95187 11.5198 9.42188 11.0898 9.42188 9.86984C9.42188 8.74984 10.2919 7.83984 11.3619 7.83984H13.8719C15.1019 7.83984 16.0919 8.87984 16.0919 10.1698" stroke="#64748B" stroke-width="1.5" stroke-linecap="round" stroke-linejoin="round"/>
<path d="M12.75 6.5V18.5" stroke="#64748B" stroke-width="1.5" stroke-linecap="round" stroke-linejoin="round"/>
<path d="M12.75 22.5C18.2728 22.5 22.75 18.0228 22.75 12.5C22.75 6.97715 18.2728 2.5 12.75 2.5C7.22715 2.5 2.75 6.97715 2.75 12.5C2.75 18.0228 7.22715 22.5 12.75 22.5Z" stroke="#64748B" stroke-width="1.5" stroke-linecap="round" stroke-linejoin="round"/>
</svg>
