<svg width="25" height="25" viewBox="0 0 25 25" fill="none" xmlns="http://www.w3.org/2000/svg">
<path d="M12.41 11.37C12.31 11.36 12.19 11.36 12.08 11.37C9.7 11.29 7.81 9.34 7.81 6.94C7.81 4.49 9.79 2.5 12.25 2.5C14.7 2.5 16.69 4.49 16.69 6.94C16.68 9.34 14.79 11.29 12.41 11.37Z" stroke="#64748B" stroke-width="1.5" stroke-linecap="round" stroke-linejoin="round"/>
<path d="M7.41 15.06C4.99 16.68 4.99 19.32 7.41 20.93C10.16 22.77 14.67 22.77 17.42 20.93C19.84 19.31 19.84 16.67 17.42 15.06C14.68 13.23 10.17 13.23 7.41 15.06Z" stroke="#64748B" stroke-width="1.5" stroke-linecap="round" stroke-linejoin="round"/>
</svg>
