<svg width="141" height="140" viewBox="0 0 141 140" fill="none" xmlns="http://www.w3.org/2000/svg">
<rect x="0.5" y="-0.00512695" width="140" height="140" rx="70" fill="#0A2833" fill-opacity="0.1"/>
<circle cx="70.5" cy="69.9949" r="60" fill="#0A2833" fill-opacity="0.3"/>
<circle cx="70.5" cy="69.9949" r="50" fill="#0A2833" fill-opacity="0.8"/>
<path d="M69.3965 51.197C70.1425 50.9325 70.975 50.9272 71.7344 51.1843L84.3457 55.4148C85.7573 55.8862 86.712 57.1833 86.7197 58.6365L86.7998 71.2537C86.8247 75.0786 85.4304 78.7886 82.877 81.6951C81.7025 83.0291 80.1968 84.1752 78.2744 85.2L71.4951 88.823C71.2828 88.9348 71.0497 88.993 70.8145 88.9949C70.5793 88.9967 70.3441 88.9406 70.1338 88.8308L63.291 85.2908C61.3479 84.2829 59.8294 83.1538 58.6436 81.8386C56.0479 78.9619 54.6049 75.2689 54.5801 71.4382L54.5 58.8308C54.4923 57.3757 55.43 56.0689 56.834 55.5789L69.3965 51.197ZM77.7656 64.7107C77.2014 64.1686 76.293 64.1721 75.7363 64.7214L69.3359 71.03L66.7148 68.5115C66.1506 67.9693 65.2441 67.9745 64.6855 68.5242C64.129 69.0738 64.135 69.9566 64.6992 70.4988L68.3389 74.0017C68.6219 74.2737 68.9893 74.4077 69.3564 74.4041C69.7236 74.4022 70.0889 74.2646 70.3682 73.989L77.7773 66.6853C78.3336 66.1357 78.3276 65.2528 77.7656 64.7107Z" fill="white"/>
</svg>
